<?xml version="1.0" standalone="no"?>
<!DOCTYPE svg PUBLIC "-//W3C//DTD SVG 20010904//EN"
 "http://www.w3.org/TR/2001/REC-SVG-20010904/DTD/svg10.dtd">
<svg version="1.0" xmlns="http://www.w3.org/2000/svg"
 width="294.000000pt" height="294.000000pt" viewBox="0 0 294.000000 294.000000"
 preserveAspectRatio="xMidYMid meet">
<metadata>
Created by potrace 1.11, written by Peter Selinger 2001-2013
</metadata>
<g transform="translate(0.000000,294.000000) scale(0.100000,-0.100000)"
fill="#000000" stroke="none">
<path d="M1355 2929 c-648 -49 -1179 -518 -1321 -1169 -27 -122 -27 -467 0
-590 112 -514 482 -931 970 -1095 150 -50 241 -66 421 -72 144 -4 189 -2 290
15 315 54 570 186 796 412 213 213 341 449 406 751 26 120 26 448 0 569 -62
292 -196 543 -400 748 -309 313 -717 464 -1162 431z m346 -105 c197 -33 423
-129 583 -247 303 -224 494 -539 553 -912 19 -121 13 -360 -12 -475 -104 -478
-454 -873 -910 -1028 -139 -47 -227 -63 -390 -69 -340 -13 -625 80 -900 293
-264 204 -452 520 -510 858 -20 115 -19 327 1 447 72 427 350 804 737 999 127
64 265 111 392 134 110 20 339 20 456 0z"/>
<path d="M440 2114 c0 -54 30 -226 51 -298 74 -248 226 -442 456 -580 l63 -37
35 27 c19 14 35 27 35 29 0 1 -41 26 -92 56 -223 131 -380 351 -439 618 -30
136 -32 131 54 131 158 -1 343 -53 459 -129 169 -110 286 -291 328 -507 l12
-59 71 2 71 1 14 69 c31 159 125 329 235 428 75 67 211 137 322 166 44 11 129
23 189 26 l109 6 -7 -62 c-33 -291 -234 -584 -488 -712 -32 -16 -58 -31 -58
-33 0 -2 16 -16 35 -31 l36 -27 76 44 c89 50 236 185 297 272 58 82 108 183
140 286 27 85 56 244 56 309 l0 34 -157 -6 c-124 -4 -179 -10 -254 -30 -176
-46 -328 -138 -428 -259 -60 -73 -155 -256 -172 -334 -7 -30 -15 -54 -19 -54
-4 0 -12 23 -18 51 -42 179 -162 361 -309 465 -150 108 -304 154 -540 161
l-163 6 0 -29z"/>
<path d="M1310 1284 c-275 -74 -480 -320 -480 -577 0 -75 2 -77 110 -77 176 0
360 92 465 232 25 33 50 77 56 99 14 46 24 50 32 10 9 -46 89 -152 153 -204
107 -87 243 -137 374 -137 107 0 110 2 110 74 0 119 -43 241 -118 336 -88 111
-241 211 -377 245 -76 19 -252 19 -325 -1z m357 -94 c197 -69 350 -245 378
-434 l7 -49 -74 6 c-121 9 -222 57 -319 152 -70 68 -101 134 -107 222 l-5 73
-73 0 -74 0 0 -55 c0 -83 -32 -156 -101 -229 -89 -95 -239 -166 -353 -166
l-39 0 6 56 c19 183 206 379 420 439 77 22 253 14 334 -15z"/>
</g>
</svg>
